<svg id="visual" viewBox="0 0 900 600" width="900" height="600" xmlns="http://www.w3.org/2000/svg" xmlns:xlink="http://www.w3.org/1999/xlink" version="1.1"><path d="M0 409L25 414.3C50 419.7 100 430.3 150 429.8C200 429.3 250 417.7 300 422C350 426.3 400 446.7 450 460.5C500 474.3 550 481.7 600 468.7C650 455.7 700 422.3 750 407.7C800 393 850 397 875 399L900 401L900 601L875 601C850 601 800 601 750 601C700 601 650 601 600 601C550 601 500 601 450 601C400 601 350 601 300 601C250 601 200 601 150 601C100 601 50 601 25 601L0 601Z" fill="#18A058" stroke-linecap="round" stroke-linejoin="miter"></path></svg>
