<svg xmlns="http://www.w3.org/2000/svg" version="1.1" xmlns:xlink="http://www.w3.org/1999/xlink" xmlns:svgjs="http://svgjs.com/svgjs" width="1440" height="560" preserveAspectRatio="none" viewBox="0 0 1440 560"><g mask="url(&quot;#SvgjsMask1001&quot;)" fill="none"><path d="M1560 560L0 560 L0 359.69Q28.26 315.95, 72 344.21Q93.98 294.19, 144 316.17Q194.94 247.11, 264 298.05Q316.98 231.03, 384 284.02Q447.51 275.53, 456 339.05Q498.61 309.66, 528 352.28Q531.45 283.73, 600 287.17Q665.65 232.82, 720 298.47Q812.56 271.03, 840 363.59Q892.68 296.26, 960 348.94Q988.75 305.69, 1032 334.45Q1052.48 282.93, 1104 303.41Q1132.76 260.18, 1176 288.94Q1226.1 267.04, 1248 317.14Q1303.26 300.4, 1320 355.66Q1346.3 261.96, 1440 288.25Q1508.14 236.39, 1560 304.54z" fill="#182f5d"></path><path d="M1464 560L0 560 L0 417.41Q26.87 372.28, 72 399.15Q98.99 354.13, 144 381.12Q189.47 306.59, 264 352.05Q322.66 338.71, 336 397.36Q356.43 345.79, 408 366.22Q436.13 322.36, 480 350.49Q554.34 304.83, 600 379.16Q678.69 337.86, 720 416.55Q788.53 365.08, 840 433.6Q848.32 369.92, 912 378.24Q977.19 323.43, 1032 388.62Q1099.81 336.43, 1152 404.24Q1219.66 351.9, 1272 419.57Q1292.63 368.19, 1344 388.82Q1411.76 336.58, 1464 404.34z" fill="#25467d"></path><path d="M1512 560L0 560 L0 471.29Q80.97 432.26, 120 513.24Q122.17 443.41, 192 445.59Q220.13 401.72, 264 429.85Q326.31 420.17, 336 482.48Q358.84 433.32, 408 456.16Q496.44 424.61, 528 513.05Q553.31 418.36, 648 443.67Q676.06 399.74, 720 427.8Q778.7 414.5, 792 473.2Q839.66 448.87, 864 496.53Q894.55 455.08, 936 485.63Q971.49 401.12, 1056 436.6Q1108.87 417.47, 1128 470.33Q1154.61 424.94, 1200 451.55Q1278.32 409.87, 1320 488.18Q1367.2 463.38, 1392 510.58Q1410.1 408.67, 1512 426.77z" fill="#356cb1"></path><path d="M1560 560L0 560 L0 569Q24.9 473.9, 120 498.8Q190.19 449, 240 519.19Q303.98 511.17, 312 575.15Q334.52 525.67, 384 548.19Q436.82 481.01, 504 533.82Q557.15 514.97, 576 568.12Q625 497.12, 696 546.12Q719.03 497.15, 768 520.19Q861.14 493.34, 888 586.48Q914.6 541.08, 960 567.68Q988.67 524.35, 1032 553.01Q1037.31 486.32, 1104 491.63Q1162.56 478.19, 1176 536.75Q1229.79 518.54, 1248 572.33Q1260.16 512.49, 1320 524.65Q1393.09 477.74, 1440 550.83Q1510.59 501.41, 1560 572z" fill="white"></path></g><defs><mask id="SvgjsMask1001"><rect width="1440" height="560" fill="#ffffff"></rect></mask></defs></svg>